<?xml version="1.0" encoding="utf-8"?>
<!-- Generator: Adobe Illustrator 18.0.0, SVG Export Plug-In . SVG Version: 6.00 Build 0)  -->
<!DOCTYPE svg PUBLIC "-//W3C//DTD SVG 1.1//EN" "http://www.w3.org/Graphics/SVG/1.1/DTD/svg11.dtd">
<svg version="1.1" id="Layer_1" xmlns="http://www.w3.org/2000/svg" xmlns:xlink="http://www.w3.org/1999/xlink" x="0px" y="0px"
	 viewBox="0 0 1119 1212" enable-background="new 0 0 1119 1212" xml:space="preserve">
<pattern  x="160" y="1006" width="258" height="258" patternUnits="userSpaceOnUse" id="pattern-11" viewBox="84.5 -258 258 258" overflow="visible">
	<g>
		<polygon fill="none" points="84.5,0 342.5,0 342.5,-258 84.5,-258 		"/>
		<g>
			
				<image overflow="visible" enable-background="new    " width="258" height="258" id="image-12_1_" xlink:href="5FE867960934B264.png"  transform="matrix(1 0 0 -1 0 -258)">
			</image>
		</g>
	</g>
</pattern>
<pattern  x="160" y="1006" width="258" height="258" patternUnits="userSpaceOnUse" id="pattern-14" viewBox="84.5 -258 258 258" overflow="visible">
	<g>
		<polygon fill="none" points="84.5,0 342.5,0 342.5,-258 84.5,-258 		"/>
		<g>
			
				<image overflow="visible" enable-background="new    " width="258" height="258" id="image-15_1_" xlink:href="5FE867960934B265.png"  transform="matrix(1 0 0 -1 0 -258)">
			</image>
		</g>
	</g>
</pattern>
<pattern  x="160" y="1006" width="258" height="258" patternUnits="userSpaceOnUse" id="pattern-17" viewBox="84.5 -258 258 258" overflow="visible">
	<g>
		<polygon fill="none" points="84.5,0 342.5,0 342.5,-258 84.5,-258 		"/>
		<g>
			
				<image overflow="visible" enable-background="new    " width="258" height="258" id="image-18_1_" xlink:href="5FE867960934B263.png"  transform="matrix(1 0 0 -1 0 -258)">
			</image>
		</g>
	</g>
</pattern>
<pattern  x="160" y="1006" width="258" height="258" patternUnits="userSpaceOnUse" id="pattern-20" viewBox="84.5 -258 258 258" overflow="visible">
	<g>
		<polygon fill="none" points="84.5,0 342.5,0 342.5,-258 84.5,-258 		"/>
		<g>
			
				<image overflow="visible" enable-background="new    " width="258" height="258" id="image-21_1_" xlink:href="5FE867960934B26C.png"  transform="matrix(1 0 0 -1 0 -258)">
			</image>
		</g>
	</g>
</pattern>
<pattern  x="160" y="1006" width="258" height="258" patternUnits="userSpaceOnUse" id="pattern-23" viewBox="84.5 -258 258 258" overflow="visible">
	<g>
		<polygon fill="none" points="84.5,0 342.5,0 342.5,-258 84.5,-258 		"/>
		<g>
			
				<image overflow="visible" enable-background="new    " width="258" height="258" id="image-24_1_" xlink:href="5FE867960934B26F.png"  transform="matrix(1 0 0 -1 0 -258)">
			</image>
		</g>
	</g>
</pattern>
<pattern  x="160" y="1006" width="258" height="258" patternUnits="userSpaceOnUse" id="pattern-26" viewBox="84.5 -258 258 258" overflow="visible">
	<g>
		<polygon fill="none" points="84.5,0 342.5,0 342.5,-258 84.5,-258 		"/>
		<g>
			
				<image overflow="visible" enable-background="new    " width="258" height="258" id="image-27_1_" xlink:href="5FE867960934B26D.png"  transform="matrix(1 0 0 -1 0 -258)">
			</image>
		</g>
	</g>
</pattern>
<pattern  x="160" y="1006" width="258" height="258" patternUnits="userSpaceOnUse" id="pattern-29" viewBox="84.5 -258 258 258" overflow="visible">
	<g>
		<polygon fill="none" points="84.5,0 342.5,0 342.5,-258 84.5,-258 		"/>
		<g>
			
				<image overflow="visible" enable-background="new    " width="258" height="258" id="image-30_1_" xlink:href="5FE867960934B262.png"  transform="matrix(1 0 0 -1 0 -258)">
			</image>
		</g>
	</g>
</pattern>
<pattern  x="160" y="1006" width="258" height="258" patternUnits="userSpaceOnUse" id="pattern-32" viewBox="84.5 -258 258 258" overflow="visible">
	<g>
		<polygon fill="none" points="84.5,0 342.5,0 342.5,-258 84.5,-258 		"/>
		<g>
			
				<image overflow="visible" enable-background="new    " width="258" height="258" id="image-33_1_" xlink:href="5FE867960934B266.png"  transform="matrix(1 0 0 -1 0 -258)">
			</image>
		</g>
	</g>
</pattern>
<pattern  x="160" y="1006" width="258" height="258" patternUnits="userSpaceOnUse" id="pattern-35" viewBox="84.5 -258 258 258" overflow="visible">
	<g>
		<polygon fill="none" points="84.5,0 342.5,0 342.5,-258 84.5,-258 		"/>
		<g>
			
				<image overflow="visible" enable-background="new    " width="258" height="258" id="image-36_1_" xlink:href="5FE867960934B267.png"  transform="matrix(1 0 0 -1 0 -258)">
			</image>
		</g>
	</g>
</pattern>
<pattern  x="160" y="1006" width="258" height="258" patternUnits="userSpaceOnUse" id="pattern-38" viewBox="84.5 -258 258 258" overflow="visible">
	<g>
		<polygon fill="none" points="84.5,0 342.5,0 342.5,-258 84.5,-258 		"/>
		<g>
			
				<image overflow="visible" enable-background="new    " width="258" height="258" id="image-39_1_" xlink:href="DC96F8AF549DC8C3.png"  transform="matrix(1 0 0 -1 0 -258)">
			</image>
		</g>
	</g>
</pattern>
<pattern  x="160" y="1006" width="258" height="258" patternUnits="userSpaceOnUse" id="pattern-41" viewBox="84.5 -258 258 258" overflow="visible">
	<g>
		<polygon fill="none" points="84.5,0 342.5,0 342.5,-258 84.5,-258 		"/>
		<g>
			
				<image overflow="visible" enable-background="new    " width="258" height="258" id="image-42_1_" xlink:href="DC96F8AF549DC8C1.png"  transform="matrix(1 0 0 -1 0 -258)">
			</image>
		</g>
	</g>
</pattern>
<pattern  x="160" y="1006" width="258" height="258" patternUnits="userSpaceOnUse" id="pattern-44" viewBox="263.2 -258 258 258" overflow="visible">
	<g>
		<polygon fill="none" points="263.2,0 521.2,0 521.2,-258 263.2,-258 		"/>
		<g>
			
				<image overflow="visible" enable-background="new    " width="258" height="258" id="image-45_1_" xlink:href="DC96F8AF549DC8C7.png"  transform="matrix(1 0 0 -1 0 -258)">
			</image>
		</g>
	</g>
</pattern>
<pattern  x="160" y="1006" width="258" height="258" patternUnits="userSpaceOnUse" id="pattern-5" viewBox="84.5 -258 258 258" overflow="visible">
	<g>
		<polygon fill="none" points="84.5,0 342.5,0 342.5,-258 84.5,-258 		"/>
		<g>
			
				<image overflow="visible" enable-background="new    " width="258" height="258" id="image-6_1_" xlink:href="DC96F8AF549DC8C2.png"  transform="matrix(1 0 0 -1 0 -258)">
			</image>
		</g>
	</g>
</pattern>
<pattern  x="160" y="1006" width="258" height="258" patternUnits="userSpaceOnUse" id="pattern-8" viewBox="84.5 -258 258 258" overflow="visible">
	<g>
		<polygon fill="none" points="84.5,0 342.5,0 342.5,-258 84.5,-258 		"/>
		<g>
			
				<image overflow="visible" enable-background="new    " width="258" height="258" id="image-9_1_" xlink:href="DC96F8AF549DC8DD.png"  transform="matrix(1 0 0 -1 0 -258)">
			</image>
		</g>
	</g>
</pattern>
<title>highlights copy</title>
<desc>Created with Sketch.</desc>
<g id="Page-1">
	<g id="highlights-copy" transform="translate(0.000000, -122.000000)">
		<g id="Group" transform="translate(0.000000, 215.000000)">
			<g id="Mask">
				<circle id="path-1_1_" fill="#01ACB1" cx="559.5" cy="559.5" r="559.5"/>
			</g>
			<defs>
				<filter id="Adobe_OpacityMaskFilter" filterUnits="userSpaceOnUse" x="-562.6" y="-59.8" width="2635.3" height="2480.2">
					<feColorMatrix  type="matrix" values="1 0 0 0 0  0 1 0 0 0  0 0 1 0 0  0 0 0 1 0"/>
				</filter>
			</defs>
			<mask maskUnits="userSpaceOnUse" x="-562.6" y="-59.8" width="2635.3" height="2480.2" id="mask-2">
				<g filter="url(#Adobe_OpacityMaskFilter)">
					<circle id="path-1" fill="#FFFFFF" cx="559.5" cy="559.5" r="559.5"/>
				</g>
			</mask>
			<g id="Group-Copy" mask="url(#mask-2)">
				
					<g id="Baloon" transform="translate(700.511300, 1103.155599) rotate(12.000000) translate(-700.511300, -1103.155599) translate(-1154.988700, -92.344401)">
					<g transform="translate(329.763247, 224.069899)">
						<g>
							<path id="String" fill="none" stroke="#FFFFFF" stroke-width="6" d="M516.7,460.8c1.7,71.4,24.8,145.9,69.2,223.6
								c66.7,116.5,166.7,98.4,135,464.8c-21.1,244.3-72.1,410.7-152.9,499.3"/>
							<g>
								<g>
									<path id="path-4" fill="#B5B5B5" d="M506.4,465.1c1,0,16.9,3,19.1,0c2.8-3.8-4.1-10.8-5.2-15.8c-0.7-3.4,2.9-6,3.7-6.1
										c23.3-4.2,45.3-23.9,64.9-37.9c50.4-36,98.9-107.7,98.9-190.3C687.9,96.2,602.8,0,515.2,0c-87.6,0-172.7,96.2-172.7,214.9
										c0,85.7,51.1,159.7,104.6,194.2c18.1,11.7,38.1,29.7,59.2,33.9c1.1,0.2,5.2,3.3,4.8,7C510.4,456.5,504.5,465.1,506.4,465.1
										z"/>
								</g>
								<g>
									
										<linearGradient id="path-4_3_" gradientUnits="userSpaceOnUse" x1="957.5005" y1="898.1766" x2="957.5005" y2="897.1766" gradientTransform="matrix(337.8107 -96.978 -71.8041 -456.2449 -258445.9688 502644.9688)">
										<stop  offset="0" style="stop-color:#FFFFFF;stop-opacity:0.5"/>
										<stop  offset="1" style="stop-color:#000000;stop-opacity:0.5"/>
									</linearGradient>
									<path id="path-4_1_" fill="url(#path-4_3_)" d="M506.4,465.1c1,0,16.9,3,19.1,0c2.8-3.8-4.1-10.8-5.2-15.8
										c-0.7-3.4,2.9-6,3.7-6.1c23.3-4.2,45.3-23.9,64.9-37.9c50.4-36,98.9-107.7,98.9-190.3C687.9,96.2,602.8,0,515.2,0
										c-87.6,0-172.7,96.2-172.7,214.9c0,85.7,51.1,159.7,104.6,194.2c18.1,11.7,38.1,29.7,59.2,33.9c1.1,0.2,5.2,3.3,4.8,7
										C510.4,456.5,504.5,465.1,506.4,465.1z"/>
								</g>
								<g>
									
										<pattern  id="path-4_5_" xlink:href="#pattern-5" patternTransform="matrix(0.9781 0.2079 0.2079 -0.9781 1011.6854 -14563.3203)">
									</pattern>
									<path id="path-4_2_" fill="url(#path-4_5_)" fill-opacity="0.2" d="M506.4,465.1c1,0,16.9,3,19.1,0
										c2.8-3.8-4.1-10.8-5.2-15.8c-0.7-3.4,2.9-6,3.7-6.1c23.3-4.2,45.3-23.9,64.9-37.9c50.4-36,98.9-107.7,98.9-190.3
										C687.9,96.2,602.8,0,515.2,0c-87.6,0-172.7,96.2-172.7,214.9c0,85.7,51.1,159.7,104.6,194.2c18.1,11.7,38.1,29.7,59.2,33.9
										c1.1,0.2,5.2,3.3,4.8,7C510.4,456.5,504.5,465.1,506.4,465.1z"/>
								</g>
							</g>
						</g>
					</g>
					<g transform="translate(1034.557818, 248.071429)">
						<g>
							<path id="String_1_" fill="none" stroke="#FFFFFF" stroke-width="6" d="M516.7,460.8c1.7,71.4,24.8,145.9,69.2,223.6
								c66.7,116.5,166.7,98.4,135,464.8c-21.1,244.3-72.1,410.7-152.9,499.3"/>
							<g>
								<g>
									<path id="path-7" fill="#B5B5B5" d="M506.4,465.1c1,0,16.9,3,19.1,0c2.8-3.8-4.1-10.8-5.2-15.8c-0.7-3.4,2.9-6,3.7-6.1
										c23.3-4.2,45.3-23.9,64.9-37.9c50.4-36,98.9-107.7,98.9-190.3C687.9,96.2,602.8,0,515.2,0c-87.6,0-172.7,96.2-172.7,214.9
										c0,85.7,51.1,159.7,104.6,194.2c18.1,11.7,38.1,29.7,59.2,33.9c1.1,0.2,5.2,3.3,4.8,7C510.4,456.5,504.5,465.1,506.4,465.1
										z"/>
								</g>
								<g>
									
										<linearGradient id="path-7_3_" gradientUnits="userSpaceOnUse" x1="252.7059" y1="874.175" x2="252.7059" y2="873.175" gradientTransform="matrix(337.8107 -96.978 -71.8041 -456.2449 -22082.207 423344.8125)">
										<stop  offset="0" style="stop-color:#FFFFFF;stop-opacity:0.5"/>
										<stop  offset="1" style="stop-color:#000000;stop-opacity:0.5"/>
									</linearGradient>
									<path id="path-7_1_" fill="url(#path-7_3_)" d="M506.4,465.1c1,0,16.9,3,19.1,0c2.8-3.8-4.1-10.8-5.2-15.8
										c-0.7-3.4,2.9-6,3.7-6.1c23.3-4.2,45.3-23.9,64.9-37.9c50.4-36,98.9-107.7,98.9-190.3C687.9,96.2,602.8,0,515.2,0
										c-87.6,0-172.7,96.2-172.7,214.9c0,85.7,51.1,159.7,104.6,194.2c18.1,11.7,38.1,29.7,59.2,33.9c1.1,0.2,5.2,3.3,4.8,7
										C510.4,456.5,504.5,465.1,506.4,465.1z"/>
								</g>
								<g>
									
										<pattern  id="path-7_5_" xlink:href="#pattern-8" patternTransform="matrix(0.9781 0.2079 0.2079 -0.9781 1696.0884 -14733.332)">
									</pattern>
									<path id="path-7_2_" fill="url(#path-7_5_)" fill-opacity="0.2" d="M506.4,465.1c1,0,16.9,3,19.1,0
										c2.8-3.8-4.1-10.8-5.2-15.8c-0.7-3.4,2.9-6,3.7-6.1c23.3-4.2,45.3-23.9,64.9-37.9c50.4-36,98.9-107.7,98.9-190.3
										C687.9,96.2,602.8,0,515.2,0c-87.6,0-172.7,96.2-172.7,214.9c0,85.7,51.1,159.7,104.6,194.2c18.1,11.7,38.1,29.7,59.2,33.9
										c1.1,0.2,5.2,3.3,4.8,7C510.4,456.5,504.5,465.1,506.4,465.1z"/>
								</g>
							</g>
						</g>
					</g>
					<g transform="translate(1629.086809, 224.069899)">
						<g>
							<path id="String_2_" fill="none" stroke="#FFFFFF" stroke-width="6" d="M516.7,460.8c1.7,71.4,24.8,145.9,69.2,223.6
								c66.7,116.5,166.7,98.4,135,464.8c-21.1,244.3-72.1,410.7-152.9,499.3"/>
							<g>
								<g>
									<path id="path-10" fill="#B5B5B5" d="M506.4,465.1c1,0,16.9,3,19.1,0c2.8-3.8-4.1-10.8-5.2-15.8c-0.7-3.4,2.9-6,3.7-6.1
										c23.3-4.2,45.3-23.9,64.9-37.9c50.4-36,98.9-107.7,98.9-190.3C687.9,96.2,602.8,0,515.2,0S342.5,96.2,342.5,214.9
										c0,85.7,51.1,159.7,104.6,194.2c18.1,11.7,38.1,29.7,59.2,33.9c1.1,0.2,5.2,3.3,4.8,7C510.4,456.5,504.5,465.1,506.4,465.1
										z"/>
								</g>
								<g>
									
										<linearGradient id="path-10_3_" gradientUnits="userSpaceOnUse" x1="-341.8231" y1="898.1766" x2="-341.8231" y2="897.1766" gradientTransform="matrix(337.8107 -96.978 -71.8041 -456.2449 180479.4375 376639.125)">
										<stop  offset="0" style="stop-color:#FFFFFF;stop-opacity:0.5"/>
										<stop  offset="1" style="stop-color:#000000;stop-opacity:0.5"/>
									</linearGradient>
									<path id="path-10_1_" fill="url(#path-10_3_)" d="M506.4,465.1c1,0,16.9,3,19.1,0c2.8-3.8-4.1-10.8-5.2-15.8
										c-0.7-3.4,2.9-6,3.7-6.1c23.3-4.2,45.3-23.9,64.9-37.9c50.4-36,98.9-107.7,98.9-190.3C687.9,96.2,602.8,0,515.2,0
										S342.5,96.2,342.5,214.9c0,85.7,51.1,159.7,104.6,194.2c18.1,11.7,38.1,29.7,59.2,33.9c1.1,0.2,5.2,3.3,4.8,7
										C510.4,456.5,504.5,465.1,506.4,465.1z"/>
								</g>
								<g>
									
										<pattern  id="path-10_5_" xlink:href="#pattern-11" patternTransform="matrix(0.9781 0.2079 0.2079 -0.9781 2282.6157 -14833.4648)">
									</pattern>
									<path id="path-10_2_" fill="url(#path-10_5_)" fill-opacity="0.2" d="M506.4,465.1c1,0,16.9,3,19.1,0
										c2.8-3.8-4.1-10.8-5.2-15.8c-0.7-3.4,2.9-6,3.7-6.1c23.3-4.2,45.3-23.9,64.9-37.9c50.4-36,98.9-107.7,98.9-190.3
										C687.9,96.2,602.8,0,515.2,0S342.5,96.2,342.5,214.9c0,85.7,51.1,159.7,104.6,194.2c18.1,11.7,38.1,29.7,59.2,33.9
										c1.1,0.2,5.2,3.3,4.8,7C510.4,456.5,504.5,465.1,506.4,465.1z"/>
								</g>
							</g>
						</g>
					</g>
					<g transform="translate(1968.714769, 0.000000)">
						<g>
							<path id="String_3_" fill="none" stroke="#FFFFFF" stroke-width="6" d="M516.7,460.8c1.7,71.4,24.8,145.9,69.2,223.6
								c66.7,116.5,166.7,98.4,135,464.8c-21.1,244.3-72.1,410.7-152.9,499.3"/>
							<g>
								<g>
									<path id="path-13" fill="#B5B5B5" d="M506.4,465.1c1,0,16.9,3,19.1,0c2.8-3.8-4.1-10.8-5.2-15.8c-0.7-3.4,2.9-6,3.7-6.1
										c23.3-4.2,45.3-23.9,64.9-37.9c50.4-36,98.9-107.7,98.9-190.3C687.9,96.2,602.8,0,515.2,0c-87.6,0-172.7,96.2-172.7,214.9
										c0,85.7,51.1,159.7,104.6,194.2c18.1,11.7,38.1,29.7,59.2,33.9c1.1,0.2,5.2,3.3,4.8,7C510.4,456.5,504.5,465.1,506.4,465.1
										z"/>
								</g>
								<g>
									
										<linearGradient id="path-13_3_" gradientUnits="userSpaceOnUse" x1="-681.451" y1="1122.2465" x2="-681.451" y2="1121.2465" gradientTransform="matrix(337.8107 -96.978 -71.8041 -456.2449 311298.5312 445933.4375)">
										<stop  offset="0" style="stop-color:#FFFFFF;stop-opacity:0.5"/>
										<stop  offset="1" style="stop-color:#000000;stop-opacity:0.5"/>
									</linearGradient>
									<path id="path-13_1_" fill="url(#path-13_3_)" d="M506.4,465.1c1,0,16.9,3,19.1,0c2.8-3.8-4.1-10.8-5.2-15.8
										c-0.7-3.4,2.9-6,3.7-6.1c23.3-4.2,45.3-23.9,64.9-37.9c50.4-36,98.9-107.7,98.9-190.3C687.9,96.2,602.8,0,515.2,0
										c-87.6,0-172.7,96.2-172.7,214.9c0,85.7,51.1,159.7,104.6,194.2c18.1,11.7,38.1,29.7,59.2,33.9c1.1,0.2,5.2,3.3,4.8,7
										C510.4,456.5,504.5,465.1,506.4,465.1z"/>
								</g>
								<g>
									
										<pattern  id="path-13_5_" xlink:href="#pattern-14" patternTransform="matrix(0.9781 0.2079 0.2079 -0.9781 2661.4087 -14684.9043)">
									</pattern>
									<path id="path-13_2_" fill="url(#path-13_5_)" fill-opacity="0.2" d="M506.4,465.1c1,0,16.9,3,19.1,0
										c2.8-3.8-4.1-10.8-5.2-15.8c-0.7-3.4,2.9-6,3.7-6.1c23.3-4.2,45.3-23.9,64.9-37.9c50.4-36,98.9-107.7,98.9-190.3
										C687.9,96.2,602.8,0,515.2,0c-87.6,0-172.7,96.2-172.7,214.9c0,85.7,51.1,159.7,104.6,194.2c18.1,11.7,38.1,29.7,59.2,33.9
										c1.1,0.2,5.2,3.3,4.8,7C510.4,456.5,504.5,465.1,506.4,465.1z"/>
								</g>
							</g>
						</g>
					</g>
					<g transform="translate(2171.645998, 333.990981)">
						<g>
							<path id="String_4_" fill="none" stroke="#FFFFFF" stroke-width="6" d="M516.7,460.8c1.7,71.4,24.8,145.9,69.2,223.6
								c66.7,116.5,166.7,98.4,135,464.8c-21.1,244.3-72.1,410.7-152.9,499.3"/>
							<g>
								<g>
									<path id="path-16" fill="#B5B5B5" d="M506.4,465.1c1,0,16.9,3,19.1,0c2.8-3.8-4.1-10.8-5.2-15.8c-0.7-3.4,2.9-6,3.7-6.1
										c23.3-4.2,45.3-23.9,64.9-37.9c50.4-36,98.9-107.7,98.9-190.3C687.9,96.2,602.8,0,515.2,0c-87.6,0-172.7,96.2-172.7,214.9
										c0,85.7,51.1,159.7,104.6,194.2c18.1,11.7,38.1,29.7,59.2,33.9c1.1,0.2,5.2,3.3,4.8,7C510.4,456.5,504.5,465.1,506.4,465.1
										z"/>
								</g>
								<g>
									
										<linearGradient id="path-16_3_" gradientUnits="userSpaceOnUse" x1="-884.3823" y1="788.2555" x2="-884.3823" y2="787.2555" gradientTransform="matrix(337.8107 -96.978 -71.8041 -456.2449 355868.9688 273871.9062)">
										<stop  offset="0" style="stop-color:#FFFFFF;stop-opacity:0.5"/>
										<stop  offset="1" style="stop-color:#000000;stop-opacity:0.5"/>
									</linearGradient>
									<path id="path-16_1_" fill="url(#path-16_3_)" d="M506.4,465.1c1,0,16.9,3,19.1,0c2.8-3.8-4.1-10.8-5.2-15.8
										c-0.7-3.4,2.9-6,3.7-6.1c23.3-4.2,45.3-23.9,64.9-37.9c50.4-36,98.9-107.7,98.9-190.3C687.9,96.2,602.8,0,515.2,0
										c-87.6,0-172.7,96.2-172.7,214.9c0,85.7,51.1,159.7,104.6,194.2c18.1,11.7,38.1,29.7,59.2,33.9c1.1,0.2,5.2,3.3,4.8,7
										C510.4,456.5,504.5,465.1,506.4,465.1z"/>
								</g>
								<g>
									
										<pattern  id="path-16_5_" xlink:href="#pattern-17" patternTransform="matrix(0.9781 0.2079 0.2079 -0.9781 2790.4648 -15053.7881)">
									</pattern>
									<path id="path-16_2_" fill="url(#path-16_5_)" fill-opacity="0.2" d="M506.4,465.1c1,0,16.9,3,19.1,0
										c2.8-3.8-4.1-10.8-5.2-15.8c-0.7-3.4,2.9-6,3.7-6.1c23.3-4.2,45.3-23.9,64.9-37.9c50.4-36,98.9-107.7,98.9-190.3
										C687.9,96.2,602.8,0,515.2,0c-87.6,0-172.7,96.2-172.7,214.9c0,85.7,51.1,159.7,104.6,194.2c18.1,11.7,38.1,29.7,59.2,33.9
										c1.1,0.2,5.2,3.3,4.8,7C510.4,456.5,504.5,465.1,506.4,465.1z"/>
								</g>
							</g>
						</g>
					</g>
					<g transform="translate(1113.303269, 725.760992)">
						<g>
							<path id="String_5_" fill="none" stroke="#FFFFFF" stroke-width="6" d="M516.7,460.8c1.7,71.4,24.8,145.9,69.2,223.6
								c66.7,116.5,166.7,98.4,135,464.8c-21.1,244.3-72.1,410.7-152.9,499.3"/>
							<g>
								<g>
									<path id="path-19" fill="#B5B5B5" d="M506.4,465.1c1,0,16.9,3,19.1,0c2.8-3.8-4.1-10.8-5.2-15.8c-0.7-3.4,2.9-6,3.7-6.1
										c23.3-4.2,45.3-23.9,64.9-37.9c50.4-36,98.9-107.7,98.9-190.3C687.9,96.2,602.8,0,515.2,0c-87.6,0-172.7,96.2-172.7,214.9
										c0,85.7,51.1,159.7,104.6,194.2c18.1,11.7,38.1,29.7,59.2,33.9c1.1,0.2,5.2,3.3,4.8,7C510.4,456.5,504.5,465.1,506.4,465.1
										z"/>
								</g>
								<g>
									
										<linearGradient id="path-19_3_" gradientUnits="userSpaceOnUse" x1="173.9605" y1="396.4855" x2="173.9605" y2="395.4855" gradientTransform="matrix(337.8107 -96.978 -71.8041 -456.2449 -29781.2363 197764.8281)">
										<stop  offset="0" style="stop-color:#FFFFFF;stop-opacity:0.5"/>
										<stop  offset="1" style="stop-color:#000000;stop-opacity:0.5"/>
									</linearGradient>
									<path id="path-19_1_" fill="url(#path-19_3_)" d="M506.4,465.1c1,0,16.9,3,19.1,0c2.8-3.8-4.1-10.8-5.2-15.8
										c-0.7-3.4,2.9-6,3.7-6.1c23.3-4.2,45.3-23.9,64.9-37.9c50.4-36,98.9-107.7,98.9-190.3C687.9,96.2,602.8,0,515.2,0
										c-87.6,0-172.7,96.2-172.7,214.9c0,85.7,51.1,159.7,104.6,194.2c18.1,11.7,38.1,29.7,59.2,33.9c1.1,0.2,5.2,3.3,4.8,7
										C510.4,456.5,504.5,465.1,506.4,465.1z"/>
								</g>
								<g>
									
										<pattern  id="path-19_5_" xlink:href="#pattern-20" patternTransform="matrix(0.9781 0.2079 0.2079 -0.9781 1673.7957 -15216.9551)">
									</pattern>
									<path id="path-19_2_" fill="url(#path-19_5_)" fill-opacity="0.2" d="M506.4,465.1c1,0,16.9,3,19.1,0
										c2.8-3.8-4.1-10.8-5.2-15.8c-0.7-3.4,2.9-6,3.7-6.1c23.3-4.2,45.3-23.9,64.9-37.9c50.4-36,98.9-107.7,98.9-190.3
										C687.9,96.2,602.8,0,515.2,0c-87.6,0-172.7,96.2-172.7,214.9c0,85.7,51.1,159.7,104.6,194.2c18.1,11.7,38.1,29.7,59.2,33.9
										c1.1,0.2,5.2,3.3,4.8,7C510.4,456.5,504.5,465.1,506.4,465.1z"/>
								</g>
							</g>
						</g>
					</g>
					<g transform="translate(1521.984216, 741.262683)">
						<g>
							<path id="String_6_" fill="none" stroke="#FFFFFF" stroke-width="6" d="M516.7,460.8c1.7,71.4,24.8,145.9,69.2,223.6
								c66.7,116.5,166.7,98.4,135,464.8c-21.1,244.3-72.1,410.7-152.9,499.3"/>
							<g>
								<g>
									<path id="path-22" fill="#B5B5B5" d="M506.4,465.1c1,0,16.9,3,19.1,0c2.8-3.8-4.1-10.8-5.2-15.8c-0.7-3.4,2.9-6,3.7-6.1
										c23.3-4.2,45.3-23.9,64.9-37.9c50.4-36,98.9-107.7,98.9-190.3C687.9,96.2,602.8,0,515.2,0c-87.6,0-172.7,96.2-172.7,214.9
										c0,85.7,51.1,159.7,104.6,194.2c18.1,11.7,38.1,29.7,59.2,33.9c1.1,0.2,5.2,3.3,4.8,7C510.4,456.5,504.5,465.1,506.4,465.1
										z"/>
								</g>
								<g>
									
										<linearGradient id="path-22_3_" gradientUnits="userSpaceOnUse" x1="-234.7205" y1="380.9838" x2="-234.7205" y2="379.9838" gradientTransform="matrix(337.8107 -96.978 -71.8041 -456.2449 107162.5078 151059.1719)">
										<stop  offset="0" style="stop-color:#FFFFFF;stop-opacity:0.5"/>
										<stop  offset="1" style="stop-color:#000000;stop-opacity:0.5"/>
									</linearGradient>
									<path id="path-22_1_" fill="url(#path-22_3_)" d="M506.4,465.1c1,0,16.9,3,19.1,0c2.8-3.8-4.1-10.8-5.2-15.8
										c-0.7-3.4,2.9-6,3.7-6.1c23.3-4.2,45.3-23.9,64.9-37.9c50.4-36,98.9-107.7,98.9-190.3C687.9,96.2,602.8,0,515.2,0
										c-87.6,0-172.7,96.2-172.7,214.9c0,85.7,51.1,159.7,104.6,194.2c18.1,11.7,38.1,29.7,59.2,33.9c1.1,0.2,5.2,3.3,4.8,7
										C510.4,456.5,504.5,465.1,506.4,465.1z"/>
								</g>
								<g>
									
										<pattern  id="path-22_5_" xlink:href="#pattern-23" patternTransform="matrix(0.9781 0.2079 0.2079 -0.9781 2070.323 -15317.0879)">
									</pattern>
									<path id="path-22_2_" fill="url(#path-22_5_)" fill-opacity="0.2" d="M506.4,465.1c1,0,16.9,3,19.1,0
										c2.8-3.8-4.1-10.8-5.2-15.8c-0.7-3.4,2.9-6,3.7-6.1c23.3-4.2,45.3-23.9,64.9-37.9c50.4-36,98.9-107.7,98.9-190.3
										C687.9,96.2,602.8,0,515.2,0c-87.6,0-172.7,96.2-172.7,214.9c0,85.7,51.1,159.7,104.6,194.2c18.1,11.7,38.1,29.7,59.2,33.9
										c1.1,0.2,5.2,3.3,4.8,7C510.4,456.5,504.5,465.1,506.4,465.1z"/>
								</g>
							</g>
						</g>
					</g>
					<g transform="translate(1861.612176, 517.192785)">
						<g>
							<path id="String_7_" fill="none" stroke="#FFFFFF" stroke-width="6" d="M516.7,460.8c1.7,71.4,24.8,145.9,69.2,223.6
								c66.7,116.5,166.7,98.4,135,464.8c-21.1,244.3-72.1,410.7-152.9,499.3"/>
							<g>
								<g>
									<path id="path-25" fill="#B5B5B5" d="M506.4,465.1c1,0,16.9,3,19.1,0c2.8-3.8-4.1-10.8-5.2-15.8c-0.7-3.4,2.9-6,3.7-6.1
										c23.3-4.2,45.3-23.9,64.9-37.9c50.4-36,98.9-107.7,98.9-190.3C687.9,96.2,602.8,0,515.2,0c-87.6,0-172.7,96.2-172.7,214.9
										c0,85.7,51.1,159.7,104.6,194.2c18.1,11.7,38.1,29.7,59.2,33.9c1.1,0.2,5.2,3.3,4.8,7C510.4,456.5,504.5,465.1,506.4,465.1
										z"/>
								</g>
								<g>
									
										<linearGradient id="path-25_3_" gradientUnits="userSpaceOnUse" x1="-574.3484" y1="605.0536" x2="-574.3484" y2="604.0536" gradientTransform="matrix(337.8107 -96.978 -71.8041 -456.2449 237981.5938 220353.4531)">
										<stop  offset="0" style="stop-color:#FFFFFF;stop-opacity:0.5"/>
										<stop  offset="1" style="stop-color:#000000;stop-opacity:0.5"/>
									</linearGradient>
									<path id="path-25_1_" fill="url(#path-25_3_)" d="M506.4,465.1c1,0,16.9,3,19.1,0c2.8-3.8-4.1-10.8-5.2-15.8
										c-0.7-3.4,2.9-6,3.7-6.1c23.3-4.2,45.3-23.9,64.9-37.9c50.4-36,98.9-107.7,98.9-190.3C687.9,96.2,602.8,0,515.2,0
										c-87.6,0-172.7,96.2-172.7,214.9c0,85.7,51.1,159.7,104.6,194.2c18.1,11.7,38.1,29.7,59.2,33.9c1.1,0.2,5.2,3.3,4.8,7
										C510.4,456.5,504.5,465.1,506.4,465.1z"/>
								</g>
								<g>
									
										<pattern  id="path-25_5_" xlink:href="#pattern-26" patternTransform="matrix(0.9781 0.2079 0.2079 -0.9781 2449.1162 -15168.5273)">
									</pattern>
									<path id="path-25_2_" fill="url(#path-25_5_)" fill-opacity="0.2" d="M506.4,465.1c1,0,16.9,3,19.1,0
										c2.8-3.8-4.1-10.8-5.2-15.8c-0.7-3.4,2.9-6,3.7-6.1c23.3-4.2,45.3-23.9,64.9-37.9c50.4-36,98.9-107.7,98.9-190.3
										C687.9,96.2,602.8,0,515.2,0c-87.6,0-172.7,96.2-172.7,214.9c0,85.7,51.1,159.7,104.6,194.2c18.1,11.7,38.1,29.7,59.2,33.9
										c1.1,0.2,5.2,3.3,4.8,7C510.4,456.5,504.5,465.1,506.4,465.1z"/>
								</g>
							</g>
						</g>
					</g>
					<g transform="translate(659.510724, 301.289987)">
						<g>
							<path id="String_8_" fill="none" stroke="#FFFFFF" stroke-width="6" d="M516.7,460.8c1.7,71.4,24.8,145.9,69.2,223.6
								c66.7,116.5,166.7,98.4,135,464.8c-21.1,244.3-72.1,410.7-152.9,499.3"/>
							<g>
								<g>
									<path id="path-28" fill="#B5B5B5" d="M506.4,465.1c1,0,16.9,3,19.1,0c2.8-3.8-4.1-10.8-5.2-15.8c-0.7-3.4,2.9-6,3.7-6.1
										c23.3-4.2,45.3-23.9,64.9-37.9c50.4-36,98.9-107.7,98.9-190.3C687.9,96.2,602.8,0,515.2,0c-87.6,0-172.7,96.2-172.7,214.9
										c0,85.7,51.1,159.7,104.6,194.2c18.1,11.7,38.1,29.7,59.2,33.9c1.1,0.2,5.2,3.3,4.8,7C510.4,456.5,504.5,465.1,506.4,465.1
										z"/>
								</g>
								<g>
									
										<linearGradient id="path-28_3_" gradientUnits="userSpaceOnUse" x1="627.753" y1="820.9565" x2="627.753" y2="819.9565" gradientTransform="matrix(337.8107 -96.978 -71.8041 -456.2449 -152598.4531 435435.4375)">
										<stop  offset="0" style="stop-color:#FFFFFF;stop-opacity:0.5"/>
										<stop  offset="1" style="stop-color:#000000;stop-opacity:0.5"/>
									</linearGradient>
									<path id="path-28_1_" fill="url(#path-28_3_)" d="M506.4,465.1c1,0,16.9,3,19.1,0c2.8-3.8-4.1-10.8-5.2-15.8
										c-0.7-3.4,2.9-6,3.7-6.1c23.3-4.2,45.3-23.9,64.9-37.9c50.4-36,98.9-107.7,98.9-190.3C687.9,96.2,602.8,0,515.2,0
										c-87.6,0-172.7,96.2-172.7,214.9c0,85.7,51.1,159.7,104.6,194.2c18.1,11.7,38.1,29.7,59.2,33.9c1.1,0.2,5.2,3.3,4.8,7
										C510.4,456.5,504.5,465.1,506.4,465.1z"/>
								</g>
								<g>
									
										<pattern  id="path-28_5_" xlink:href="#pattern-29" patternTransform="matrix(0.9781 0.2079 0.2079 -0.9781 1318.1721 -14707.4111)">
									</pattern>
									<path id="path-28_2_" fill="url(#path-28_5_)" fill-opacity="0.2" d="M506.4,465.1c1,0,16.9,3,19.1,0
										c2.8-3.8-4.1-10.8-5.2-15.8c-0.7-3.4,2.9-6,3.7-6.1c23.3-4.2,45.3-23.9,64.9-37.9c50.4-36,98.9-107.7,98.9-190.3
										C687.9,96.2,602.8,0,515.2,0c-87.6,0-172.7,96.2-172.7,214.9c0,85.7,51.1,159.7,104.6,194.2c18.1,11.7,38.1,29.7,59.2,33.9
										c1.1,0.2,5.2,3.3,4.8,7C510.4,456.5,504.5,465.1,506.4,465.1z"/>
								</g>
							</g>
						</g>
					</g>
					<g transform="translate(2218.151071, 693.348365)">
						<g>
							<path id="String_9_" fill="none" stroke="#FFFFFF" stroke-width="6" d="M516.7,460.8c1.7,71.4,24.8,145.9,69.2,223.6
								c66.7,116.5,166.7,98.4,135,464.8c-21.1,244.3-72.1,410.7-152.9,499.3"/>
							<g>
								<g>
									<path id="path-31" fill="#B5B5B5" d="M506.4,465.1c1,0,16.9,3,19.1,0c2.8-3.8-4.1-10.8-5.2-15.8c-0.7-3.4,2.9-6,3.7-6.1
										c23.3-4.2,45.3-23.9,64.9-37.9c50.4-36,98.9-107.7,98.9-190.3C687.9,96.2,602.8,0,515.2,0c-87.6,0-172.7,96.2-172.7,214.9
										c0,85.7,51.1,159.7,104.6,194.2c18.1,11.7,38.1,29.7,59.2,33.9c1.1,0.2,5.2,3.3,4.8,7C510.4,456.5,504.5,465.1,506.4,465.1
										z"/>
								</g>
								<g>
									
										<linearGradient id="path-31_3_" gradientUnits="userSpaceOnUse" x1="-930.8874" y1="428.8981" x2="-930.8874" y2="427.8981" gradientTransform="matrix(337.8107 -96.978 -71.8041 -456.2449 345775.5625 105406.9375)">
										<stop  offset="0" style="stop-color:#FFFFFF;stop-opacity:0.5"/>
										<stop  offset="1" style="stop-color:#000000;stop-opacity:0.5"/>
									</linearGradient>
									<path id="path-31_1_" fill="url(#path-31_3_)" d="M506.4,465.1c1,0,16.9,3,19.1,0c2.8-3.8-4.1-10.8-5.2-15.8
										c-0.7-3.4,2.9-6,3.7-6.1c23.3-4.2,45.3-23.9,64.9-37.9c50.4-36,98.9-107.7,98.9-190.3C687.9,96.2,602.8,0,515.2,0
										c-87.6,0-172.7,96.2-172.7,214.9c0,85.7,51.1,159.7,104.6,194.2c18.1,11.7,38.1,29.7,59.2,33.9c1.1,0.2,5.2,3.3,4.8,7
										C510.4,456.5,504.5,465.1,506.4,465.1z"/>
								</g>
								<g>
									
										<pattern  id="path-31_5_" xlink:href="#pattern-32" patternTransform="matrix(0.9781 0.2079 0.2079 -0.9781 2761.239 -15414.9619)">
									</pattern>
									<path id="path-31_2_" fill="url(#path-31_5_)" fill-opacity="0.2" d="M506.4,465.1c1,0,16.9,3,19.1,0
										c2.8-3.8-4.1-10.8-5.2-15.8c-0.7-3.4,2.9-6,3.7-6.1c23.3-4.2,45.3-23.9,64.9-37.9c50.4-36,98.9-107.7,98.9-190.3
										C687.9,96.2,602.8,0,515.2,0c-87.6,0-172.7,96.2-172.7,214.9c0,85.7,51.1,159.7,104.6,194.2c18.1,11.7,38.1,29.7,59.2,33.9
										c1.1,0.2,5.2,3.3,4.8,7C510.4,456.5,504.5,465.1,506.4,465.1z"/>
								</g>
							</g>
						</g>
					</g>
					<g transform="translate(2375.986471, 91.600902)">
						<g>
							<path id="String_10_" fill="none" stroke="#FFFFFF" stroke-width="6" d="M516.7,460.8c1.7,71.4,24.8,145.9,69.2,223.6
								c66.7,116.5,166.7,98.4,135,464.8c-21.1,244.3-72.1,410.7-152.9,499.3"/>
							<g>
								<g>
									<path id="path-34" fill="#B5B5B5" d="M506.4,465.1c1,0,16.9,3,19.1,0c2.8-3.8-4.1-10.8-5.2-15.8c-0.7-3.4,2.9-6,3.7-6.1
										c23.3-4.2,45.3-23.9,64.9-37.9c50.4-36,98.9-107.7,98.9-190.3C687.9,96.2,602.8,0,515.2,0c-87.6,0-172.7,96.2-172.7,214.9
										c0,85.7,51.1,159.7,104.6,194.2c18.1,11.7,38.1,29.7,59.2,33.9c1.1,0.2,5.2,3.3,4.8,7C510.4,456.5,504.5,465.1,506.4,465.1
										z"/>
								</g>
								<g>
									
										<linearGradient id="path-34_3_" gradientUnits="userSpaceOnUse" x1="-1088.7228" y1="1030.6456" x2="-1088.7228" y2="1029.6456" gradientTransform="matrix(337.8107 -96.978 -71.8041 -456.2449 442302 364644.5625)">
										<stop  offset="0" style="stop-color:#FFFFFF;stop-opacity:0.5"/>
										<stop  offset="1" style="stop-color:#000000;stop-opacity:0.5"/>
									</linearGradient>
									<path id="path-34_1_" fill="url(#path-34_3_)" d="M506.4,465.1c1,0,16.9,3,19.1,0c2.8-3.8-4.1-10.8-5.2-15.8
										c-0.7-3.4,2.9-6,3.7-6.1c23.3-4.2,45.3-23.9,64.9-37.9c50.4-36,98.9-107.7,98.9-190.3C687.9,96.2,602.8,0,515.2,0
										c-87.6,0-172.7,96.2-172.7,214.9c0,85.7,51.1,159.7,104.6,194.2c18.1,11.7,38.1,29.7,59.2,33.9c1.1,0.2,5.2,3.3,4.8,7
										C510.4,456.5,504.5,465.1,506.4,465.1z"/>
								</g>
								<g>
									
										<pattern  id="path-34_5_" xlink:href="#pattern-35" patternTransform="matrix(0.9781 0.2079 0.2079 -0.9781 3040.7356 -14859.1797)">
									</pattern>
									<path id="path-34_2_" fill="url(#path-34_5_)" fill-opacity="0.2" d="M506.4,465.1c1,0,16.9,3,19.1,0
										c2.8-3.8-4.1-10.8-5.2-15.8c-0.7-3.4,2.9-6,3.7-6.1c23.3-4.2,45.3-23.9,64.9-37.9c50.4-36,98.9-107.7,98.9-190.3
										C687.9,96.2,602.8,0,515.2,0c-87.6,0-172.7,96.2-172.7,214.9c0,85.7,51.1,159.7,104.6,194.2c18.1,11.7,38.1,29.7,59.2,33.9
										c1.1,0.2,5.2,3.3,4.8,7C510.4,456.5,504.5,465.1,506.4,465.1z"/>
								</g>
							</g>
						</g>
					</g>
					<g transform="translate(662.344983, 683.483653)">
						<g>
							<path id="String_11_" fill="none" stroke="#FFFFFF" stroke-width="6" d="M516.7,460.8c1.7,71.4,24.8,145.9,69.2,223.6
								c66.7,116.5,166.7,98.4,135,464.8c-21.1,244.3-72.1,410.7-152.9,499.3"/>
							<g>
								<g>
									<path id="path-37" fill="#B5B5B5" d="M506.4,465.1c1,0,16.9,3,19.1,0c2.8-3.8-4.1-10.8-5.2-15.8c-0.7-3.4,2.9-6,3.7-6.1
										c23.3-4.2,45.3-23.9,64.9-37.9c50.4-36,98.9-107.7,98.9-190.3C687.9,96.2,602.8,0,515.2,0c-87.6,0-172.7,96.2-172.7,214.9
										c0,85.7,51.1,159.7,104.6,194.2c18.1,11.7,38.1,29.7,59.2,33.9c1.1,0.2,5.2,3.3,4.8,7C510.4,456.5,504.5,465.1,506.4,465.1
										z"/>
								</g>
								<g>
									
										<linearGradient id="path-37_3_" gradientUnits="userSpaceOnUse" x1="624.9188" y1="438.7628" x2="624.9188" y2="437.7628" gradientTransform="matrix(337.8107 -96.978 -71.8041 -456.2449 -179084.0781 260786.6875)">
										<stop  offset="0" style="stop-color:#FFFFFF;stop-opacity:0.5"/>
										<stop  offset="1" style="stop-color:#000000;stop-opacity:0.5"/>
									</linearGradient>
									<path id="path-37_1_" fill="url(#path-37_3_)" d="M506.4,465.1c1,0,16.9,3,19.1,0c2.8-3.8-4.1-10.8-5.2-15.8
										c-0.7-3.4,2.9-6,3.7-6.1c23.3-4.2,45.3-23.9,64.9-37.9c50.4-36,98.9-107.7,98.9-190.3C687.9,96.2,602.8,0,515.2,0
										c-87.6,0-172.7,96.2-172.7,214.9c0,85.7,51.1,159.7,104.6,194.2c18.1,11.7,38.1,29.7,59.2,33.9c1.1,0.2,5.2,3.3,4.8,7
										C510.4,456.5,504.5,465.1,506.4,465.1z"/>
								</g>
								<g>
									
										<pattern  id="path-37_5_" xlink:href="#pattern-38" patternTransform="matrix(0.9781 0.2079 0.2079 -0.9781 1241.4819 -15081.8428)">
									</pattern>
									<path id="path-37_2_" fill="url(#path-37_5_)" fill-opacity="0.2" d="M506.4,465.1c1,0,16.9,3,19.1,0
										c2.8-3.8-4.1-10.8-5.2-15.8c-0.7-3.4,2.9-6,3.7-6.1c23.3-4.2,45.3-23.9,64.9-37.9c50.4-36,98.9-107.7,98.9-190.3
										C687.9,96.2,602.8,0,515.2,0c-87.6,0-172.7,96.2-172.7,214.9c0,85.7,51.1,159.7,104.6,194.2c18.1,11.7,38.1,29.7,59.2,33.9
										c1.1,0.2,5.2,3.3,4.8,7C510.4,456.5,504.5,465.1,506.4,465.1z"/>
								</g>
							</g>
						</g>
					</g>
					<g transform="translate(239.571590, 683.483653)">
						<g>
							<path id="String_12_" fill="none" stroke="#FFFFFF" stroke-width="6" d="M516.7,460.8c1.7,71.4,24.8,145.9,69.2,223.6
								c66.7,116.5,166.7,98.4,135,464.8c-21.1,244.3-72.1,410.7-152.9,499.3"/>
							<g>
								<g>
									<path id="path-40" fill="#B5B5B5" d="M506.4,465.1c1,0,16.9,3,19.1,0c2.8-3.8-4.1-10.8-5.2-15.8c-0.7-3.4,2.9-6,3.7-6.1
										c23.3-4.2,45.3-23.9,64.9-37.9c50.4-36,98.9-107.7,98.9-190.3C687.9,96.2,602.8,0,515.2,0c-87.6,0-172.7,96.2-172.7,214.9
										c0,85.7,51.1,159.7,104.6,194.2c18.1,11.7,38.1,29.7,59.2,33.9c1.1,0.2,5.2,3.3,4.8,7C510.4,456.5,504.5,465.1,506.4,465.1
										z"/>
								</g>
								<g>
									
										<linearGradient id="path-40_3_" gradientUnits="userSpaceOnUse" x1="1047.6921" y1="438.7628" x2="1047.6921" y2="437.7628" gradientTransform="matrix(337.8107 -96.978 -71.8041 -456.2449 -321901.4688 301786.4062)">
										<stop  offset="0" style="stop-color:#FFFFFF;stop-opacity:0.5"/>
										<stop  offset="1" style="stop-color:#000000;stop-opacity:0.5"/>
									</linearGradient>
									<path id="path-40_1_" fill="url(#path-40_3_)" d="M506.4,465.1c1,0,16.9,3,19.1,0c2.8-3.8-4.1-10.8-5.2-15.8
										c-0.7-3.4,2.9-6,3.7-6.1c23.3-4.2,45.3-23.9,64.9-37.9c50.4-36,98.9-107.7,98.9-190.3C687.9,96.2,602.8,0,515.2,0
										c-87.6,0-172.7,96.2-172.7,214.9c0,85.7,51.1,159.7,104.6,194.2c18.1,11.7,38.1,29.7,59.2,33.9c1.1,0.2,5.2,3.3,4.8,7
										C510.4,456.5,504.5,465.1,506.4,465.1z"/>
								</g>
								<g>
									
										<pattern  id="path-40_5_" xlink:href="#pattern-41" patternTransform="matrix(0.9781 0.2079 0.2079 -0.9781 827.9471 -14993.9434)">
									</pattern>
									<path id="path-40_2_" fill="url(#path-40_5_)" fill-opacity="0.2" d="M506.4,465.1c1,0,16.9,3,19.1,0
										c2.8-3.8-4.1-10.8-5.2-15.8c-0.7-3.4,2.9-6,3.7-6.1c23.3-4.2,45.3-23.9,64.9-37.9c50.4-36,98.9-107.7,98.9-190.3
										C687.9,96.2,602.8,0,515.2,0c-87.6,0-172.7,96.2-172.7,214.9c0,85.7,51.1,159.7,104.6,194.2c18.1,11.7,38.1,29.7,59.2,33.9
										c1.1,0.2,5.2,3.3,4.8,7C510.4,456.5,504.5,465.1,506.4,465.1z"/>
								</g>
							</g>
						</g>
					</g>
				</g>
			</g>
		</g>
		<g id="happybaloon-copy" transform="translate(-172.000000, 122.000000)">
			<path id="String_13_" fill="none" stroke="#FFFFFF" stroke-width="6" d="M786.9,703.3c2.6,109,37.8,222.7,105.7,341.3
				c101.8,177.8,254.4,150.2,206.1,709.5c-32.2,372.9-110,626.9-233.3,762"/>
			<g id="Baloon_1_">
				<g>
					<path id="path-43" fill="#F8E71C" d="M771.2,709.9c1.5,0,25.9,4.6,29.2,0c4.2-5.8-6.3-16.5-7.9-24.2c-1.1-5.2,4.5-9.1,5.7-9.3
						c35.6-6.4,69.2-36.5,99.1-57.8c77-54.9,150.9-164.4,150.9-290.5C1048.3,146.9,918.4,0,784.7,0S521.2,146.9,521.2,328.1
						c0,130.8,78,243.7,159.7,296.4c27.6,17.8,58.1,45.3,90.3,51.8c1.6,0.3,7.9,5,7.3,10.7C777.3,696.8,768.4,709.9,771.2,709.9z"/>
				</g>
				<g>
					
						<linearGradient id="path-43_3_" gradientUnits="userSpaceOnUse" x1="332.1964" y1="1006.2894" x2="332.1964" y2="1005.2894" gradientTransform="matrix(527.0403 0 0 -711.9288 -174296.1562 716406.375)">
						<stop  offset="0" style="stop-color:#FFFFFF;stop-opacity:0.5"/>
						<stop  offset="1" style="stop-color:#000000;stop-opacity:0.5"/>
					</linearGradient>
					<path id="path-43_1_" fill="url(#path-43_3_)" d="M771.2,709.9c1.5,0,25.9,4.6,29.2,0c4.2-5.8-6.3-16.5-7.9-24.2
						c-1.1-5.2,4.5-9.1,5.7-9.3c35.6-6.4,69.2-36.5,99.1-57.8c77-54.9,150.9-164.4,150.9-290.5C1048.3,146.9,918.4,0,784.7,0
						S521.2,146.9,521.2,328.1c0,130.8,78,243.7,159.7,296.4c27.6,17.8,58.1,45.3,90.3,51.8c1.6,0.3,7.9,5,7.3,10.7
						C777.3,696.8,768.4,709.9,771.2,709.9z"/>
				</g>
				<g>
					<pattern  id="path-43_5_" xlink:href="#pattern-44" patternTransform="matrix(1 0 0 -1 -68.7886 -16436)">
					</pattern>
					<path id="path-43_2_" fill="url(#path-43_5_)" fill-opacity="0.2" d="M771.2,709.9c1.5,0,25.9,4.6,29.2,0
						c4.2-5.8-6.3-16.5-7.9-24.2c-1.1-5.2,4.5-9.1,5.7-9.3c35.6-6.4,69.2-36.5,99.1-57.8c77-54.9,150.9-164.4,150.9-290.5
						C1048.3,146.9,918.4,0,784.7,0S521.2,146.9,521.2,328.1c0,130.8,78,243.7,159.7,296.4c27.6,17.8,58.1,45.3,90.3,51.8
						c1.6,0.3,7.9,5,7.3,10.7C777.3,696.8,768.4,709.9,771.2,709.9z"/>
				</g>
			</g>
			<g id="Face" transform="translate(600.805260, 258.142175)" opacity="0.4">
				<circle id="Oval-3" cx="28" cy="28" r="28"/>
				<circle id="Oval-3-Copy" cx="288.3" cy="28" r="28"/>
				<path id="Combined-Shape" d="M32.3,77.4c-1.9,5.9-4.3,12-4.3,18.3c0,55.2,60.7,100,135.5,100S299,151,299,95.7
					c0-4.8-2.6-9.5-3.5-14.2c-0.3-1.4-0.6-2.7-0.9-4.1H32.3z"/>
			</g>
		</g>
	</g>
</g>
</svg>
