<?xml version="1.0" encoding="UTF-8"?>
<svg width="772px" height="772px" viewBox="0 0 772 772" version="1.1" xmlns="http://www.w3.org/2000/svg" xmlns:xlink="http://www.w3.org/1999/xlink">
    <!-- Generator: Sketch 47.1 (45422) - http://www.bohemiancoding.com/sketch -->
    <title>Gregor hover</title>
    <desc>Created with Sketch.</desc>
    <defs>
        <circle id="path-1" cx="386" cy="386" r="386"></circle>
        <path d="M379.450401,461.890442 C379.450401,424.958004 370.083096,352.531901 370.083096,352.531901 C367.22881,328.399795 384.34353,305.558149 408.297475,301.515753 L413.409371,300.653084 C437.368876,296.60975 457.869411,312.996305 459.15311,337.277458 C459.15311,337.277458 464.087809,423.015645 464.087809,458.976904 C464.087809,489.398509 455.354595,548.883933 455.354595,548.883933 C452.15011,572.97131 429.855477,592.497987 405.560308,592.497987 L408.907008,592.497987 C384.610868,592.497987 367.62978,572.983754 370.825767,548.897477 C370.825767,548.897477 379.450401,491.340868 379.450401,461.890442 Z" id="path-3"></path>
        <rect id="path-4" x="1.42108547e-14" y="0.708480609" width="249" height="488.291519" rx="21"></rect>
        <path d="M65.8495813,460.838636 C65.8495813,422.039289 56.2694901,343.755281 56.2694901,343.755281 C53.5529315,319.616583 71.0512445,300.048301 95.3556125,300.048301 L91.7701855,300.048301 C116.073414,300.048301 138.066458,319.606766 140.777443,343.764224 C140.777443,343.764224 150.273928,419.998745 150.273928,457.777821 C150.273928,489.737217 141.300416,554.40367 141.300416,554.40367 C138.248853,578.507934 116.074554,598.048301 91.7701855,598.048301 L95.3556125,598.048301 C71.0523846,598.048301 53.9323841,578.524123 56.9797086,554.416379 C56.9797086,554.416379 65.8495813,491.77776 65.8495813,460.838636 Z" id="path-6"></path>
        <rect id="path-7" x="0" y="0" width="162.284768" height="285" rx="81.1423841"></rect>
        <linearGradient x1="50%" y1="0%" x2="50%" y2="100%" id="linearGradient-9">
            <stop stop-color="#C8C8C8" offset="0%"></stop>
            <stop stop-color="#979797" offset="100%"></stop>
        </linearGradient>
        <path d="M82.4148595,179.318138 C55.9237821,179.788598 29.8450663,194.872186 29.8450663,194.872186 L-18.7823889,147.194164 L-29.6547419,250.639666 L38.4227438,300.024629 L125.76472,300.712027 L212.420037,221.797453 L186.157342,134.878017 L134.129898,193.020174 C134.129898,193.020174 108.905937,178.847679 82.4148595,179.318138 Z" id="path-10"></path>
        <ellipse id="path-11" cx="89.2566225" cy="228.945498" rx="16.2284768" ry="12.8317536"></ellipse>
        <rect id="path-12" x="0" y="0" width="188" height="187" rx="45"></rect>
        <rect id="path-14" x="-33" y="104" width="173" height="144"></rect>
        <rect id="path-15" x="-33" y="-72" width="257" height="144"></rect>
        <polygon id="path-16" points="5.68434189e-14 83.9339949 7.24675325 229.197153 84.5454545 229.197153 93 83.9339949"></polygon>
        <polygon id="path-17" points="11.474026 150.512942 14.7188409 220.723469 78.5335336 220.723469 83.9415584 127.512942"></polygon>
    </defs>
    <g id="Page-3" stroke="none" stroke-width="1" fill="none" fill-rule="evenodd">
        <g id="Gregor-hover">
            <mask id="mask-2" fill="white">
                <use xlink:href="#path-1"></use>
            </mask>
            <use id="Mask" fill="#01ACB1" xlink:href="#path-1"></use>
            <g id="Gregor" mask="url(#mask-2)">
                <g transform="translate(141.000000, 20.000000)">
                    <g id="arm" fill="none" transform="translate(416.929975, 446.269083) scale(1, -1) rotate(20.000000) translate(-416.929975, -446.269083) ">
                        <use fill="#515151" xlink:href="#path-3"></use>
                        <use fill="#3E3E3E" xlink:href="#path-3"></use>
                    </g>
                    <g id="neck-copy" stroke-width="1" fill="none" transform="translate(140.000000, 310.000000)">
                        <mask id="mask-5" fill="white">
                            <use xlink:href="#path-4"></use>
                        </mask>
                        <use id="Mask" fill="#515151" xlink:href="#path-4"></use>
                        <rect fill="#3E3E3E" mask="url(#mask-5)" x="76.1504854" y="-121.948148" width="95.3331587" height="181.496587" rx="47.6665793"></rect>
                    </g>
                    <g id="arm-copy-3" fill="none" transform="translate(103.132706, 449.048301) scale(-1, -1) rotate(20.000000) translate(-103.132706, -449.048301) ">
                        <use fill="#515151" xlink:href="#path-6"></use>
                        <use fill="#3E3E3E" xlink:href="#path-6"></use>
                    </g>
                    <rect id="neck" fill="#814414" x="221" y="197" width="85" height="161" rx="42.5"></rect>
                    <g id="head-wide" stroke-width="1" fill="none" transform="translate(161.000000, 0.000000)">
                        <g id="Beard" transform="translate(18.933223, 0.000000)">
                            <mask id="mask-8" fill="white">
                                <use xlink:href="#path-7"></use>
                            </mask>
                            <use id="Mask" fill="#814414" xlink:href="#path-7"></use>
                            <g mask="url(#mask-8)">
                                <use fill="url(#linearGradient-9)" xlink:href="#path-10"></use>
                                <use fill="#492813" style="mix-blend-mode: multiply;" xlink:href="#path-10"></use>
                            </g>
                        </g>
                        <ellipse id="beard-hole" fill="#814414" cx="102.104167" cy="229.620853" rx="42.5997517" ry="32.4170616"></ellipse>
                        <ellipse id="right-ear" fill="#814414" cx="29.1040172" cy="134.512947" rx="29.1040172" ry="23.7546533"></ellipse>
                        <ellipse id="left-ear" fill="#814414" cx="173.807936" cy="134.512947" rx="29.1040172" ry="23.7546533"></ellipse>
                        <g id="mouth">
                            <use fill="#000000" fill-rule="evenodd" xlink:href="#path-11"></use>
                            <ellipse stroke="#5A2F10" stroke-width="5" cx="89.2566225" cy="228.945498" rx="13.7284768" ry="10.3317536"></ellipse>
                        </g>
                        <g id="Group" transform="translate(43.275938, 93.199052)">
                            <path d="M84.2437756,69.6888525 C84.2437756,69.6888525 84.7485667,77.1792233 76.4835041,79.3481866 C68.2184416,81.5171499 53.2611438,81.9281986 43.5628499,79.3481866 C33.864556,76.7681746 35.3326863,69.6888525 35.3326863,69.6888525" id="Line" stroke="#321B0D" stroke-width="6" opacity="0.5" stroke-linecap="round"></path>
                            <path d="M33.0497017,0.747131961 C33.0497017,0.747131961 30.7772737,4.9153304 26.1779793,6.12230261 C21.5786849,7.32927482 13.2553339,7.55801283 7.85848308,6.12230261 C2.46163228,4.68659239 0.725277796,0.747131961 0.725277796,0.747131961" id="Line-Copy" stroke="#321B0D" stroke-width="6" opacity="0.5" stroke-linecap="round" transform="translate(16.887490, 3.931145) scale(1, -1) translate(-16.887490, -3.931145) "></path>
                            <path d="M114.980178,1.07469589e-13 C114.980178,1.07469589e-13 112.70775,4.16819844 108.108455,5.37517065 C103.509161,6.58214286 95.18581,6.81088086 89.7889592,5.37517065 C84.3921085,3.93946043 82.655754,1.07469589e-13 82.655754,1.07469589e-13" id="Line-Copy-2" stroke="#321B0D" stroke-width="6" opacity="0.5" stroke-linecap="round" transform="translate(98.817966, 3.184013) scale(1, -1) translate(-98.817966, -3.184013) "></path>
                            <ellipse id="Oval-1" fill="#311B0C" cx="15.2946954" cy="32.0418641" rx="7.64734771" ry="10.6806214"></ellipse>
                            <ellipse id="Oval-1-Copy" fill="#311B0C" cx="99.4799189" cy="32.0418641" rx="7.64734771" ry="10.6806214"></ellipse>
                        </g>
                    </g>
                    <g id="logo" stroke-width="1" fill="none" transform="translate(167.000000, 426.000000)">
                        <g id="Rectangle-2" transform="translate(4.000000, 0.000000)">
                            <mask id="mask-13" fill="white">
                                <use xlink:href="#path-12"></use>
                            </mask>
                            <use id="Mask" fill="#1692CE" xlink:href="#path-12"></use>
                            <g mask="url(#mask-13)">
                                <use fill="#094B7D" fill-rule="evenodd" xlink:href="#path-14"></use>
                                <rect stroke="#515151" stroke-width="20" x="-23" y="114" width="153" height="124"></rect>
                            </g>
                            <g id="Rectangle-2-Copy" mask="url(#mask-13)">
                                <use fill="#A3DCEF" fill-rule="evenodd" xlink:href="#path-15"></use>
                                <rect stroke="#515151" stroke-width="20" x="-23" y="-62" width="237" height="124"></rect>
                            </g>
                        </g>
                    </g>
                    <g id="drink" stroke-width="1" fill="none" transform="translate(195.500000, 337.000000) rotate(11.000000) translate(-195.500000, -337.000000) translate(149.000000, 222.000000)" stroke-linecap="round" stroke-linejoin="round">
                        <g id="cup">
                            <use fill="#D2D2D2" fill-rule="evenodd" xlink:href="#path-16"></use>
                            <path stroke="#D2D2D2" stroke-width="5" d="M-2.62782664,81.4339949 L95.6497347,81.4339949 L86.9041813,231.697153 L4.86836195,231.697153 L-2.62782664,81.4339949 Z"></path>
                        </g>
                        <polyline id="straw" stroke="#BF0A0A" stroke-width="8" points="76.3129256 0.444815559 47.1038961 64.1578947 37.4415584 200.947368"></polyline>
                        <g id="water">
                            <use fill="#72C1F6" fill-rule="evenodd" xlink:href="#path-17"></use>
                            <path stroke="#72C1F6" stroke-width="5" d="M8.88807006,148.710787 L86.6477751,124.031139 L80.8926893,223.223469 L12.3317112,223.223469 L8.88807006,148.710787 Z"></path>
                        </g>
                    </g>
                    <path d="M77.2800455,533.566562 C77.2800455,496.736405 68.0232614,424.623831 68.0232614,424.623831 C65.1917932,400.496178 82.5990151,380.93685 106.888606,380.93685 L102.657559,380.93685 C126.953764,380.93685 149.041037,400.488294 151.862881,424.626644 C151.862881,424.626644 161.033341,494.799426 161.033341,530.661093 C161.033341,560.998447 162.080943,569.016591 162.080943,569.016591 C163.409173,593.27308 144.783336,612.93685 120.493745,612.93685 L124.724793,612.93685 C100.428587,612.93685 79.5068667,593.27568 78.2549954,569.006827 C78.2549954,569.006827 77.2800455,562.935426 77.2800455,533.566562 Z" id="arm-copy" fill="#814414" transform="translate(114.934606, 496.936850) rotate(44.000000) translate(-114.934606, -496.936850) "></path>
                    <path d="M466.390729,335.720224 C458.63134,307.755984 524.601599,282.260478 540.621089,317.719482 C556.640578,353.178487 546.72778,582.417505 546.72778,582.417505 C545.897801,605.593135 526.415152,624.380696 503.218069,624.380696 L515.729339,624.380696 C492.529567,624.380696 473.455422,605.569293 473.095671,582.390637 C473.095671,582.390637 470.994611,415.261817 466.390729,335.720224 Z" id="arm-copy-4" fill="#814414" transform="translate(507.759572, 462.380696) rotate(-153.000000) translate(-507.759572, -462.380696) "></path>
                </g>
            </g>
            <ellipse id="Oval" fill="#000000" cx="154" cy="163" rx="141" ry="136"></ellipse>
            <text id="Hi." font-family="AvenirNext-Medium, Avenir Next" font-size="100" font-weight="400" letter-spacing="0.5555554" fill="#FFFFFF">
                <tspan x="82" y="190">Hi.</tspan>
            </text>
            <polygon id="Path-3" fill="#000000" points="252 258 311 258 281.5 202"></polygon>
        </g>
    </g>
</svg>